<svg xmlns="http://www.w3.org/2000/svg" viewBox="0 0 100 100" preserveAspectRatio="xMidYMid" width="274" height="274" style="shape-rendering: auto; display: block; background: rgb(255, 255, 255);" xmlns:xlink="http://www.w3.org/1999/xlink"><g><g transform="rotate(0 50 50)">
  <rect fill="#71fec7" height="12" width="1" ry="3" rx="0.5" y="21" x="49.5">
    <animate repeatCount="indefinite" begin="-0.7981018119068163s" dur="0.819672131147541s" keyTimes="0;1" values="1;0" attributeName="opacity"></animate>
  </rect>
</g><g transform="rotate(9.473684210526315 50 50)">
  <rect fill="#71fec7" height="12" width="1" ry="3" rx="0.5" y="21" x="49.5">
    <animate repeatCount="indefinite" begin="-0.7765314926660914s" dur="0.819672131147541s" keyTimes="0;1" values="1;0" attributeName="opacity"></animate>
  </rect>
</g><g transform="rotate(18.94736842105263 50 50)">
  <rect fill="#71fec7" height="12" width="1" ry="3" rx="0.5" y="21" x="49.5">
    <animate repeatCount="indefinite" begin="-0.7549611734253667s" dur="0.819672131147541s" keyTimes="0;1" values="1;0" attributeName="opacity"></animate>
  </rect>
</g><g transform="rotate(28.42105263157895 50 50)">
  <rect fill="#71fec7" height="12" width="1" ry="3" rx="0.5" y="21" x="49.5">
    <animate repeatCount="indefinite" begin="-0.7333908541846419s" dur="0.819672131147541s" keyTimes="0;1" values="1;0" attributeName="opacity"></animate>
  </rect>
</g><g transform="rotate(37.89473684210526 50 50)">
  <rect fill="#71fec7" height="12" width="1" ry="3" rx="0.5" y="21" x="49.5">
    <animate repeatCount="indefinite" begin="-0.7118205349439172s" dur="0.819672131147541s" keyTimes="0;1" values="1;0" attributeName="opacity"></animate>
  </rect>
</g><g transform="rotate(47.36842105263158 50 50)">
  <rect fill="#71fec7" height="12" width="1" ry="3" rx="0.5" y="21" x="49.5">
    <animate repeatCount="indefinite" begin="-0.6902502157031924s" dur="0.819672131147541s" keyTimes="0;1" values="1;0" attributeName="opacity"></animate>
  </rect>
</g><g transform="rotate(56.8421052631579 50 50)">
  <rect fill="#71fec7" height="12" width="1" ry="3" rx="0.5" y="21" x="49.5">
    <animate repeatCount="indefinite" begin="-0.6686798964624676s" dur="0.819672131147541s" keyTimes="0;1" values="1;0" attributeName="opacity"></animate>
  </rect>
</g><g transform="rotate(66.3157894736842 50 50)">
  <rect fill="#71fec7" height="12" width="1" ry="3" rx="0.5" y="21" x="49.5">
    <animate repeatCount="indefinite" begin="-0.6471095772217429s" dur="0.819672131147541s" keyTimes="0;1" values="1;0" attributeName="opacity"></animate>
  </rect>
</g><g transform="rotate(75.78947368421052 50 50)">
  <rect fill="#71fec7" height="12" width="1" ry="3" rx="0.5" y="21" x="49.5">
    <animate repeatCount="indefinite" begin="-0.6255392579810182s" dur="0.819672131147541s" keyTimes="0;1" values="1;0" attributeName="opacity"></animate>
  </rect>
</g><g transform="rotate(85.26315789473684 50 50)">
  <rect fill="#71fec7" height="12" width="1" ry="3" rx="0.5" y="21" x="49.5">
    <animate repeatCount="indefinite" begin="-0.6039689387402933s" dur="0.819672131147541s" keyTimes="0;1" values="1;0" attributeName="opacity"></animate>
  </rect>
</g><g transform="rotate(94.73684210526316 50 50)">
  <rect fill="#71fec7" height="12" width="1" ry="3" rx="0.5" y="21" x="49.5">
    <animate repeatCount="indefinite" begin="-0.5823986194995686s" dur="0.819672131147541s" keyTimes="0;1" values="1;0" attributeName="opacity"></animate>
  </rect>
</g><g transform="rotate(104.21052631578948 50 50)">
  <rect fill="#71fec7" height="12" width="1" ry="3" rx="0.5" y="21" x="49.5">
    <animate repeatCount="indefinite" begin="-0.5608283002588439s" dur="0.819672131147541s" keyTimes="0;1" values="1;0" attributeName="opacity"></animate>
  </rect>
</g><g transform="rotate(113.6842105263158 50 50)">
  <rect fill="#71fec7" height="12" width="1" ry="3" rx="0.5" y="21" x="49.5">
    <animate repeatCount="indefinite" begin="-0.5392579810181191s" dur="0.819672131147541s" keyTimes="0;1" values="1;0" attributeName="opacity"></animate>
  </rect>
</g><g transform="rotate(123.15789473684211 50 50)">
  <rect fill="#71fec7" height="12" width="1" ry="3" rx="0.5" y="21" x="49.5">
    <animate repeatCount="indefinite" begin="-0.5176876617773943s" dur="0.819672131147541s" keyTimes="0;1" values="1;0" attributeName="opacity"></animate>
  </rect>
</g><g transform="rotate(132.6315789473684 50 50)">
  <rect fill="#71fec7" height="12" width="1" ry="3" rx="0.5" y="21" x="49.5">
    <animate repeatCount="indefinite" begin="-0.49611734253666956s" dur="0.819672131147541s" keyTimes="0;1" values="1;0" attributeName="opacity"></animate>
  </rect>
</g><g transform="rotate(142.10526315789474 50 50)">
  <rect fill="#71fec7" height="12" width="1" ry="3" rx="0.5" y="21" x="49.5">
    <animate repeatCount="indefinite" begin="-0.4745470232959448s" dur="0.819672131147541s" keyTimes="0;1" values="1;0" attributeName="opacity"></animate>
  </rect>
</g><g transform="rotate(151.57894736842104 50 50)">
  <rect fill="#71fec7" height="12" width="1" ry="3" rx="0.5" y="21" x="49.5">
    <animate repeatCount="indefinite" begin="-0.45297670405522s" dur="0.819672131147541s" keyTimes="0;1" values="1;0" attributeName="opacity"></animate>
  </rect>
</g><g transform="rotate(161.05263157894737 50 50)">
  <rect fill="#71fec7" height="12" width="1" ry="3" rx="0.5" y="21" x="49.5">
    <animate repeatCount="indefinite" begin="-0.4314063848144953s" dur="0.819672131147541s" keyTimes="0;1" values="1;0" attributeName="opacity"></animate>
  </rect>
</g><g transform="rotate(170.52631578947367 50 50)">
  <rect fill="#71fec7" height="12" width="1" ry="3" rx="0.5" y="21" x="49.5">
    <animate repeatCount="indefinite" begin="-0.4098360655737705s" dur="0.819672131147541s" keyTimes="0;1" values="1;0" attributeName="opacity"></animate>
  </rect>
</g><g transform="rotate(180 50 50)">
  <rect fill="#71fec7" height="12" width="1" ry="3" rx="0.5" y="21" x="49.5">
    <animate repeatCount="indefinite" begin="-0.3882657463330457s" dur="0.819672131147541s" keyTimes="0;1" values="1;0" attributeName="opacity"></animate>
  </rect>
</g><g transform="rotate(189.47368421052633 50 50)">
  <rect fill="#71fec7" height="12" width="1" ry="3" rx="0.5" y="21" x="49.5">
    <animate repeatCount="indefinite" begin="-0.36669542709232095s" dur="0.819672131147541s" keyTimes="0;1" values="1;0" attributeName="opacity"></animate>
  </rect>
</g><g transform="rotate(198.94736842105263 50 50)">
  <rect fill="#71fec7" height="12" width="1" ry="3" rx="0.5" y="21" x="49.5">
    <animate repeatCount="indefinite" begin="-0.3451251078515962s" dur="0.819672131147541s" keyTimes="0;1" values="1;0" attributeName="opacity"></animate>
  </rect>
</g><g transform="rotate(208.42105263157896 50 50)">
  <rect fill="#71fec7" height="12" width="1" ry="3" rx="0.5" y="21" x="49.5">
    <animate repeatCount="indefinite" begin="-0.32355478861087145s" dur="0.819672131147541s" keyTimes="0;1" values="1;0" attributeName="opacity"></animate>
  </rect>
</g><g transform="rotate(217.89473684210526 50 50)">
  <rect fill="#71fec7" height="12" width="1" ry="3" rx="0.5" y="21" x="49.5">
    <animate repeatCount="indefinite" begin="-0.30198446937014667s" dur="0.819672131147541s" keyTimes="0;1" values="1;0" attributeName="opacity"></animate>
  </rect>
</g><g transform="rotate(227.3684210526316 50 50)">
  <rect fill="#71fec7" height="12" width="1" ry="3" rx="0.5" y="21" x="49.5">
    <animate repeatCount="indefinite" begin="-0.28041415012942195s" dur="0.819672131147541s" keyTimes="0;1" values="1;0" attributeName="opacity"></animate>
  </rect>
</g><g transform="rotate(236.8421052631579 50 50)">
  <rect fill="#71fec7" height="12" width="1" ry="3" rx="0.5" y="21" x="49.5">
    <animate repeatCount="indefinite" begin="-0.25884383088869717s" dur="0.819672131147541s" keyTimes="0;1" values="1;0" attributeName="opacity"></animate>
  </rect>
</g><g transform="rotate(246.31578947368422 50 50)">
  <rect fill="#71fec7" height="12" width="1" ry="3" rx="0.5" y="21" x="49.5">
    <animate repeatCount="indefinite" begin="-0.2372735116479724s" dur="0.819672131147541s" keyTimes="0;1" values="1;0" attributeName="opacity"></animate>
  </rect>
</g><g transform="rotate(255.78947368421052 50 50)">
  <rect fill="#71fec7" height="12" width="1" ry="3" rx="0.5" y="21" x="49.5">
    <animate repeatCount="indefinite" begin="-0.21570319240724764s" dur="0.819672131147541s" keyTimes="0;1" values="1;0" attributeName="opacity"></animate>
  </rect>
</g><g transform="rotate(265.2631578947368 50 50)">
  <rect fill="#71fec7" height="12" width="1" ry="3" rx="0.5" y="21" x="49.5">
    <animate repeatCount="indefinite" begin="-0.19413287316652286s" dur="0.819672131147541s" keyTimes="0;1" values="1;0" attributeName="opacity"></animate>
  </rect>
</g><g transform="rotate(274.7368421052632 50 50)">
  <rect fill="#71fec7" height="12" width="1" ry="3" rx="0.5" y="21" x="49.5">
    <animate repeatCount="indefinite" begin="-0.1725625539257981s" dur="0.819672131147541s" keyTimes="0;1" values="1;0" attributeName="opacity"></animate>
  </rect>
</g><g transform="rotate(284.2105263157895 50 50)">
  <rect fill="#71fec7" height="12" width="1" ry="3" rx="0.5" y="21" x="49.5">
    <animate repeatCount="indefinite" begin="-0.15099223468507333s" dur="0.819672131147541s" keyTimes="0;1" values="1;0" attributeName="opacity"></animate>
  </rect>
</g><g transform="rotate(293.6842105263158 50 50)">
  <rect fill="#71fec7" height="12" width="1" ry="3" rx="0.5" y="21" x="49.5">
    <animate repeatCount="indefinite" begin="-0.12942191544434858s" dur="0.819672131147541s" keyTimes="0;1" values="1;0" attributeName="opacity"></animate>
  </rect>
</g><g transform="rotate(303.1578947368421 50 50)">
  <rect fill="#71fec7" height="12" width="1" ry="3" rx="0.5" y="21" x="49.5">
    <animate repeatCount="indefinite" begin="-0.10785159620362382s" dur="0.819672131147541s" keyTimes="0;1" values="1;0" attributeName="opacity"></animate>
  </rect>
</g><g transform="rotate(312.63157894736844 50 50)">
  <rect fill="#71fec7" height="12" width="1" ry="3" rx="0.5" y="21" x="49.5">
    <animate repeatCount="indefinite" begin="-0.08628127696289906s" dur="0.819672131147541s" keyTimes="0;1" values="1;0" attributeName="opacity"></animate>
  </rect>
</g><g transform="rotate(322.10526315789474 50 50)">
  <rect fill="#71fec7" height="12" width="1" ry="3" rx="0.5" y="21" x="49.5">
    <animate repeatCount="indefinite" begin="-0.06471095772217429s" dur="0.819672131147541s" keyTimes="0;1" values="1;0" attributeName="opacity"></animate>
  </rect>
</g><g transform="rotate(331.57894736842104 50 50)">
  <rect fill="#71fec7" height="12" width="1" ry="3" rx="0.5" y="21" x="49.5">
    <animate repeatCount="indefinite" begin="-0.04314063848144953s" dur="0.819672131147541s" keyTimes="0;1" values="1;0" attributeName="opacity"></animate>
  </rect>
</g><g transform="rotate(341.05263157894734 50 50)">
  <rect fill="#71fec7" height="12" width="1" ry="3" rx="0.5" y="21" x="49.5">
    <animate repeatCount="indefinite" begin="-0.021570319240724764s" dur="0.819672131147541s" keyTimes="0;1" values="1;0" attributeName="opacity"></animate>
  </rect>
</g><g transform="rotate(350.5263157894737 50 50)">
  <rect fill="#71fec7" height="12" width="1" ry="3" rx="0.5" y="21" x="49.5">
    <animate repeatCount="indefinite" begin="0s" dur="0.819672131147541s" keyTimes="0;1" values="1;0" attributeName="opacity"></animate>
  </rect>
</g><g></g></g><!-- [ldio] generated by https://loading.io --></svg>